Coordinates
version=1
nRows=12
nColumns=24
inDegrees=yes

Units are S.I. units (second, meters, Newtons, ...)
Angles are in degrees.

endheader
time	pelvis_tilt	pelvis_list	pelvis_rotation	pelvis_tx	pelvis_ty	pelvis_tz	hip_flexion_r	hip_adduction_r	hip_rotation_r	knee_angle_r	ankle_angle_r	subtalar_angle_r	mtp_angle_r	hip_flexion_l	hip_adduction_l	hip_rotation_l	knee_angle_l	ankle_angle_l	subtalar_angle_l	mtp_angle_l	lumbar_extension	lumbar_bending	lumbar_rotation
      0.50400000	      0.35678018	      4.08141903	      2.39661960	     -0.80457765	      0.99988363	      0.29922056	     24.53593836	     -4.92271533	     -6.40259191	     -4.75950525	     -1.57036612	     -7.21628199	     -8.18373404	    -12.72940367	      5.40473810	     -9.10271222	     -6.92238468	     12.97463450	     -4.45745321	     -8.04562806	    -13.05073061	     -4.23672534	     -1.47854014
      0.50816667	      0.56829168	      3.97014107	      2.36102390	     -0.79863764	      0.99946552	      0.29967056	     24.21248199	     -4.73636821	     -6.39604307	     -4.97616983	     -1.80705920	     -7.31984678	     -8.07718089	    -13.12540603	      5.18470572	     -9.19001585	     -7.35590958	     13.23485889	     -4.17724338	     -8.14913085	    -13.23850465	     -4.07113700	     -1.42224762
      0.51233333	      0.79055334	      3.85161098	      2.27475169	     -0.79266667	      0.99907529	      0.30022787	     23.88955500	     -4.51873388	     -6.33689063	     -5.24214811	     -2.05214625	     -7.46142530	     -7.98334781	    -13.51869729	      4.96159064	     -9.34833563	     -7.81592548	     13.43440718	     -3.91027560	     -8.25137449	    -13.43364890	     -3.89072438	     -1.35787930
      0.51650000	      0.97602142	      3.72986029	      2.19044171	     -0.78664497	      0.99867011	      0.30075607	     23.62032152	     -4.30379140	     -6.31876652	     -5.57761258	     -2.31362186	     -7.61871989	     -7.91295812	    -13.86560723	      4.74255417	     -9.45092863	     -8.29754541	     13.62348993	     -3.71179660	     -8.32768683	    -13.57759892	     -3.72033424	     -1.27157682
      0.52066667	      1.18127567	      3.59580720	      2.11055177	     -0.78061896	      0.99835919	      0.30132298	     23.31384360	     -4.07330127	     -6.28227614	     -5.91266666	     -2.59403554	     -7.80222778	     -7.83032652	    -14.19873513	      4.49749020	     -9.59632336	     -8.83482764	     13.71649844	     -3.48398142	     -8.40059415	    -13.75149866	     -3.52125522	     -1.20224675
      0.52483333	      1.35975132	      3.46587495	      2.01873502	     -0.77454984	      0.99804290	      0.30186613	     23.05253202	     -3.84976627	     -6.27414869	     -6.30406583	     -2.90326674	     -7.99060697	     -7.75764375	    -14.49945352	      4.27051789	     -9.68957695	     -9.38393020	     13.79826367	     -3.37286477	     -8.44391508	    -13.88450074	     -3.33419860	     -1.11778001
      0.52900000	      1.52797314	      3.33234017	      1.93170351	     -0.76848760	      0.99777288	      0.30243572	     22.79235940	     -3.62244496	     -6.24085464	     -6.69606629	     -3.22900760	     -8.19671055	     -7.66704320	    -14.75079084	      4.03118106	     -9.79034641	    -10.00432467	     13.79609912	     -3.24294276	     -8.46787013	    -14.01546759	     -3.14092023	     -1.04446888
      0.53316667	      1.64571614	      3.21138810	      1.83612733	     -0.76239457	      0.99747251	      0.30295462	     22.59866089	     -3.41704786	     -6.22868847	     -7.12271881	     -3.60067403	     -8.32981994	     -7.61439956	    -14.93409573	      3.82269178	     -9.83400337	    -10.64802327	     13.78251200	     -3.27283968	     -8.46612207	    -14.07852503	     -2.95626998	     -0.98213049
      0.53733333	      1.87919135	      3.05951125	      1.73404273	     -0.75630282	      0.99741878	      0.30357080	     22.25779249	     -3.16420245	     -6.20137938	     -7.52044186	     -3.98491921	     -8.63799286	     -7.49345511	    -15.21264525	      3.56043031	     -9.94850640	    -11.33276391	     13.64363745	     -3.18090156	     -8.42140928	    -14.28499607	     -2.74721269	     -0.89649459
      0.54150000	      2.00605680	      2.92335982	      1.63344347	     -0.75017362	      0.99726332	      0.30414730	     22.03567766	     -2.93945726	     -6.17522688	     -7.93008358	     -4.42725001	     -8.86604755	     -7.36616617	    -15.34627031	      3.32521524	    -10.02371487	    -12.08301873	     13.50860320	     -3.18761495	     -8.34053496	    -14.36246353	     -2.55203770	     -0.81239219
      0.54566667	      2.11352538	      2.79562390	      1.52057660	     -0.74403331	      0.99712207	      0.30469509	     21.84455519	     -2.73117550	     -6.16866755	     -8.36060383	     -4.90621197	     -9.02295518	     -7.29884223	    -15.43239155	      3.10911233	    -10.08080089	    -12.87662896	     13.30625497	     -3.31206001	     -8.28183853	    -14.40919118	     -2.35671347	     -0.74295134
      0.54983333	      2.24967934	      2.65547470	      1.41237285	     -0.73790233	      0.99710272	      0.30529539	     21.60442127	     -2.50462021	     -6.13595485	     -8.76182074	     -5.40574060	     -9.29236798	     -7.21862562	    -15.51232292	      2.86834157	    -10.15366827	    -13.72680502	     13.00855856	     -3.42830537	     -8.19166957	    -14.50146158	     -2.15858080	     -0.66029005
